HIERARCHY
ROOT Hips
{
	OFFSET -14.64140 90.27770 -84.91600
	CHANNELS 6 Xposition Yposition Zposition Zrotation Xrotation Yrotation
	JOINT Spine
	{
		OFFSET 0.00000 13.20850 -1.60436
		CHANNELS 3 Zrotation Xrotation Yrotation
		JOINT Spine1
		{
			OFFSET 0.00000 8.61716 0.00000
			CHANNELS 3 Zrotation Xrotation Yrotation
			JOINT Spine2
			{
				OFFSET 0.00000 8.61717 0.00000
				CHANNELS 3 Zrotation Xrotation Yrotation
				JOINT Spine3
				{
					OFFSET 0.00000 8.61717 0.00000
					CHANNELS 3 Zrotation Xrotation Yrotation
					JOINT Neck
					{
						OFFSET 0.00000 11.07920 1.10792
						CHANNELS 3 Zrotation Xrotation Yrotation
						JOINT Neck1
						{
							OFFSET 0.00000 7.08032 0.00000
							CHANNELS 3 Zrotation Xrotation Yrotation
							JOINT Head
							{
								OFFSET 0.00000 7.08031 0.00000
								CHANNELS 3 Zrotation Xrotation Yrotation
								End site
								{
									OFFSET 0.00000 0.00000 0.00000
								}
							}
						}
					}
					JOINT RightShoulder
					{
						OFFSET -0.01000 7.91373 5.19711
						CHANNELS 3 Zrotation Xrotation Yrotation
						JOINT RightArm
						{
							OFFSET -18.41580 0.00000 0.00000
							CHANNELS 3 Zrotation Xrotation Yrotation
							JOINT RightForeArm
							{
								OFFSET -29.11090 0.00000 0.00000
								CHANNELS 3 Zrotation Xrotation Yrotation
								JOINT RightHand
								{
									OFFSET -24.65040 0.00000 0.00000
									CHANNELS 3 Zrotation Xrotation Yrotation
									JOINT RightHandThumb1
									{
										OFFSET -5.35114 -0.85590 3.97906
										CHANNELS 3 Zrotation Xrotation Yrotation
										JOINT RightHandThumb2
										{
											OFFSET -4.52789 0.00000 0.00000
											CHANNELS 3 Zrotation Xrotation Yrotation
											JOINT RightHandThumb3
											{
												OFFSET -2.46976 0.00000 0.00000
												CHANNELS 3 Zrotation Xrotation Yrotation
												End site
												{
													OFFSET 0.00000 0.00000 0.00000
												}
											}
										}
									}
									JOINT RightHandIndex1
									{
										OFFSET -14.26970 0.00000 2.88139
										CHANNELS 3 Zrotation Xrotation Yrotation
										JOINT RightHandIndex2
										{
											OFFSET -5.48836 0.00000 0.00000
											CHANNELS 3 Zrotation Xrotation Yrotation
											JOINT RightHandIndex3
											{
												OFFSET -3.01859 0.00000 0.00000
												CHANNELS 3 Zrotation Xrotation Yrotation
												End site
												{
													OFFSET 0.00000 0.00000 0.00000
												}
											}
										}
									}
									JOINT RightHandMiddle1
									{
										OFFSET -14.26970 0.00000 -0.09147
										CHANNELS 3 Zrotation Xrotation Yrotation
										JOINT RightHandMiddle2
										{
											OFFSET -6.17441 0.00000 0.00000
											CHANNELS 3 Zrotation Xrotation Yrotation
											JOINT RightHandMiddle3
											{
												OFFSET -3.56743 0.00000 0.00000
												CHANNELS 3 Zrotation Xrotation Yrotation
												End site
												{
													OFFSET 0.00000 0.00000 0.00000
												}
											}
										}
									}
									JOINT RightHandRing1
									{
										OFFSET -12.69180 0.00000 -3.06433
										CHANNELS 3 Zrotation Xrotation Yrotation
										JOINT RightHandRing2
										{
											OFFSET -5.62556 0.00000 0.00000
											CHANNELS 3 Zrotation Xrotation Yrotation
											JOINT RightHandRing3
											{
												OFFSET -3.56744 0.00000 0.00000
												CHANNELS 3 Zrotation Xrotation Yrotation
												End site
												{
													OFFSET 0.00000 0.00000 0.00000
												}
											}
										}
									}
									JOINT RightHandPinky1
									{
										OFFSET -11.11390 0.00000 -6.03719
										CHANNELS 3 Zrotation Xrotation Yrotation
										JOINT RightHandPinky2
										{
											OFFSET -4.52789 0.00000 0.00000
											CHANNELS 3 Zrotation Xrotation Yrotation
											JOINT RightHandPinky3
											{
												OFFSET -2.46976 0.00000 0.00000
												CHANNELS 3 Zrotation Xrotation Yrotation
												End site
												{
													OFFSET 0.00000 0.00000 0.00000
												}
											}
										}
									}
								}
							}
						}
					}
					JOINT LeftShoulder
					{
						OFFSET 0.01000 7.91373 5.19711
						CHANNELS 3 Zrotation Xrotation Yrotation
						JOINT LeftArm
						{
							OFFSET 18.41580 0.00000 0.00000
							CHANNELS 3 Zrotation Xrotation Yrotation
							JOINT LeftForeArm
							{
								OFFSET 29.11090 0.00000 0.00000
								CHANNELS 3 Zrotation Xrotation Yrotation
								JOINT LeftHand
								{
									OFFSET 24.65040 0.00000 0.00000
									CHANNELS 3 Zrotation Xrotation Yrotation
									JOINT LeftHandThumb1
									{
										OFFSET 5.35114 -0.85590 3.97906
										CHANNELS 3 Zrotation Xrotation Yrotation
										JOINT LeftHandThumb2
										{
											OFFSET 4.52789 0.00000 0.00000
											CHANNELS 3 Zrotation Xrotation Yrotation
											JOINT LeftHandThumb3
											{
												OFFSET 2.46977 0.00000 0.00000
												CHANNELS 3 Zrotation Xrotation Yrotation
												End site
												{
													OFFSET 0.00000 0.00000 0.00000
												}
											}
										}
									}
									JOINT LeftHandIndex1
									{
										OFFSET 14.26970 0.00000 2.88139
										CHANNELS 3 Zrotation Xrotation Yrotation
										JOINT LeftHandIndex2
										{
											OFFSET 5.48836 0.00000 0.00000
											CHANNELS 3 Zrotation Xrotation Yrotation
											JOINT LeftHandIndex3
											{
												OFFSET 3.01859 0.00000 0.00000
												CHANNELS 3 Zrotation Xrotation Yrotation
												End site
												{
													OFFSET 0.00000 0.00000 0.00000
												}
											}
										}
									}
									JOINT LeftHandMiddle1
									{
										OFFSET 14.26970 0.00000 -0.09147
										CHANNELS 3 Zrotation Xrotation Yrotation
										JOINT LeftHandMiddle2
										{
											OFFSET 6.17440 0.00000 0.00000
											CHANNELS 3 Zrotation Xrotation Yrotation
											JOINT LeftHandMiddle3
											{
												OFFSET 3.56744 0.00000 0.00000
												CHANNELS 3 Zrotation Xrotation Yrotation
												End site
												{
													OFFSET 0.00000 0.00000 0.00000
												}
											}
										}
									}
									JOINT LeftHandRing1
									{
										OFFSET 12.69180 0.00000 -3.06433
										CHANNELS 3 Zrotation Xrotation Yrotation
										JOINT LeftHandRing2
										{
											OFFSET 5.62556 0.00000 0.00000
											CHANNELS 3 Zrotation Xrotation Yrotation
											JOINT LeftHandRing3
											{
												OFFSET 3.56744 0.00000 0.00000
												CHANNELS 3 Zrotation Xrotation Yrotation
												End site
												{
													OFFSET 0.00000 0.00000 0.00000
												}
											}
										}
									}
									JOINT LeftHandPinky1
									{
										OFFSET 11.11390 0.00000 -6.03719
										CHANNELS 3 Zrotation Xrotation Yrotation
										JOINT LeftHandPinky2
										{
											OFFSET 4.52789 0.00000 0.00000
											CHANNELS 3 Zrotation Xrotation Yrotation
											JOINT LeftHandPinky3
											{
												OFFSET 2.46976 0.00000 0.00000
												CHANNELS 3 Zrotation Xrotation Yrotation
												End site
												{
													OFFSET 0.00000 0.00000 0.00000
												}
											}
										}
									}
								}
							}
						}
					}
					JOINT pCube4
					{
						OFFSET 0.00000 10.91090 1.10792
						CHANNELS 3 Zrotation Xrotation Yrotation
						End site
						{
							OFFSET 0.00000 0.00000 0.00000
						}
					}
				}
			}
		}
	}
	JOINT RightUpLeg
	{
		OFFSET -9.98441 0.00000 0.00000
		CHANNELS 3 Zrotation Xrotation Yrotation
		JOINT RightLeg
		{
			OFFSET 0.00000 -42.11790 0.00000
			CHANNELS 3 Zrotation Xrotation Yrotation
			JOINT RightFoot
			{
				OFFSET 0.00000 -45.00020 -0.00001
				CHANNELS 3 Zrotation Xrotation Yrotation
				JOINT RightForeFoot
				{
					OFFSET 0.00000 -3.74820 0.00000
					CHANNELS 3 Zrotation Xrotation Yrotation
					JOINT RightToeBase
					{
						OFFSET 0.00000 0.06325 14.43120
						CHANNELS 3 Zrotation Xrotation Yrotation
						End site
						{
							OFFSET 0.00000 0.00000 0.00000
						}
					}
				}
			}
		}
	}
	JOINT LeftUpLeg
	{
		OFFSET 9.98441 0.00000 0.00000
		CHANNELS 3 Zrotation Xrotation Yrotation
		JOINT LeftLeg
		{
			OFFSET 0.00000 -42.11800 0.00000
			CHANNELS 3 Zrotation Xrotation Yrotation
			JOINT LeftFoot
			{
				OFFSET 0.00000 -45.00070 0.00000
				CHANNELS 3 Zrotation Xrotation Yrotation
				JOINT LeftForeFoot
				{
					OFFSET 0.00000 -3.74824 0.00000
					CHANNELS 3 Zrotation Xrotation Yrotation
					JOINT LeftToeBase
					{
						OFFSET 0.00000 0.06325 14.43110
						CHANNELS 3 Zrotation Xrotation Yrotation
						End site
						{
							OFFSET 0.00000 0.00000 0.00000
						}
					}
				}
			}
		}
	}
}
MOTION
Frames: 4
Frame Time: 0.050000
0.03930291043345314 -0.02046094044361824 -0.015604006857167535 -0.0467824946540511 -0.003332134389073149 -0.03750493115785052 2.364269365728558 1.1001680310808557 -1.7964791562012918 -0.7751646102683415 3.385422340844842 0.42598407376566516 -0.9160518259098097 -1.6252932074257298 0.5181220770808633 -0.6263654472748709 -0.3013498602986949 -0.3617380111548978 0.29181968615099807 13.075457221812494 -1.331212775228349 0.552166808945596 0.5659222310659164 -3.5792157755611487 1.0489340103404192 -14.791466054125816 -0.34231363352946276 -9.688280445999453 3.395851437269343 -15.383167220547781 75.71928480612162 4.373237634071691 22.027544452982855 41.82753104834956 9.91629417056467 94.26416784958546 18.085982462044093 -0.3881581985206438 -7.552913493525123 4.570904279171275 -0.15094345139372156 -1.5689220601366851 -0.03520439212221955 -0.019637388575409906 -56.27939267226479 -0.00148036344032688 0.03243181584810677 -56.269638493664274 -38.792329874891216 0.015316312257381458 0.005222625328298761 -0.033567598071439914 -0.015178457818087047 -0.01990296900757439 0.04591320151754658 0.017375811904220318 0.019418494935729527 -36.742231965732636 -0.04972066472181107 0.0354538172363127 -0.01729288624278229 -0.002808527858718008 0.04234109759847856 0.021868002945303753 -0.013369340525020026 0.04075654843458183 -19.795116874233322 -0.013154318374265731 -0.026752430424777967 0.012983062024460555 0.010806898084351164 -0.04055193400162743 -0.005072604786326773 0.046779369896662426 0.018236884553019306 24.049117630570333 0.02662220887143487 -0.022920461005179228 28.8676048213812 0.021834968153525047 0.005280885953407477 28.870296334473945 -0.015065430481166995 0.022504786665047724 9.616953768595229 2.3197064879223586 13.263373932107616 -73.782853408038 22.943738724702072 -19.756747943392472 -55.65934288150213 13.1145953947823 -95.92765695546967 -18.640575967281375 -8.317711009296119 6.492469087771409 -0.5082228032569408 0.08448276982811649 -8.088017731084697 0.017789180808555308 -0.0034201880478202827 44.58804651857233 -0.029248121148380508 -0.027264578706759433 44.61325992748761 12.471176594368574 -0.024460936341122272 -0.017620638025818453 -0.011529267547803094 0.03150535400710894 -0.01275719488109443 -0.03341911079450601 0.013933006917114738 -0.04947137934098651 11.111208829475114 -0.00444311750155819 -0.03185268157054097 -0.046068542388748315 -0.02935289409406531 0.022876835739051908 0.036267260595321434 0.020035955628666287 0.03872081939170495 4.725965449862396 -0.0047371926606344684 -0.0414442214196288 -0.014690045183133665 -0.04025659323451353 -0.003345143189881202 -0.025424372484067766 -0.01774823158773334 -0.031107461495282422 -5.5977031869503735 0.028651553748037854 -0.004791640056571204 -6.747844861942361 0.017250505557908732 -0.0005893433564676518 -6.725974000838523 -0.020830592754757956 -0.000788796672499384 0.04036042042790357 0.023687875523513566 -0.026035110900081995 8.033000678874053 3.516907973756411 -19.240207572772317 0.005458010087783696 10.440964394105025 -0.012284980620526388 -5.636233605655827 -15.678290417132297 3.1709200963203634 -0.028271966489335013 -0.045466099012058565 0.019272758341488443 -0.009146775330550173 4.719253280222851 0.021312547841004358 12.43162014199902 -8.23502836901938 6.835733881126911 0.03415714714220225 46.345807373819326 0.012166573514786087 -4.296202001043632 -14.728985650969273 -3.8375912807969423 0.029242623052436714 0.011862011619413802 -0.041537354405806116 0.0245626311335071 -10.72424668861242 -0.010103540966138237 
-0.029213316750997132 -0.018419535998103947 -0.04724092146046293 0.03792309246145417 -0.023930654222961437 -0.007350243813482194 2.027652407803623 1.0005121053406982 -1.8075273936129406 -0.7805247602702682 3.4212272412074194 0.43110872607695117 -0.9791549230488158 -1.7055681724287128 0.7424155072907701 -0.756967152215575 -0.333968255725728 -0.3751914301157266 0.37781716215443567 13.29794355115524 -1.3529388541500278 0.5909026124447896 0.6166818679025725 -3.808503997789604 1.158623195195332 -14.742945572154868 -0.33831885953037977 -9.916893040210647 3.4764198549915366 -15.26761411055915 75.29583424562391 1.115748751618583 24.17829346013044 41.790819158696195 9.576142391738324 95.26104717282902 17.549503266032247 -0.3921342304250161 -7.282704463538759 4.481852734608117 -0.13008689084911285 -1.6011998620200354 -0.029147255289187716 0.030806878288587886 -56.26221757447014 -0.04004977627896108 0.02596956882628836 -56.252836824014445 -38.81235897206547 -0.012059843545364397 -0.03986311030476542 0.013356181756352779 -0.04918672890946385 -0.0073190900188890365 -0.004273735030006095 0.028585450144565632 0.03247141045621831 -36.70685195745846 0.042539660043208194 -0.0363071845358376 0.023742545217546308 -0.013680047193099301 -0.04248385727092423 -0.0034751946805866344 -0.02052664366268613 -0.015554151077023853 -19.709556605408174 -0.03678111964942397 -0.0328179691177475 -0.02103583179475002 0.031620285320804555 -0.027382526476679388 0.047812653878310386 -0.03798806946935134 -0.007770088595281956 24.090595254180347 -0.01932253502192097 -0.008311917037148333 28.913358812183375 -0.021649415361569526 -0.0043662842850080074 28.818984002159475 -0.0027555240554647457 0.00725602998070602 9.344710861841733 2.2836799089357966 13.193456681467215 -73.5061632160089 23.443013043791144 -19.00242049874087 -54.07619887287508 12.728775908474464 -95.89890498000196 -18.05850991008987 -7.8607768980681465 5.936048828166521 -0.49629427672210097 0.04125655196204045 -8.12609369649989 -0.00963182094199193 -0.03622506452944309 44.52509502813064 -0.0022873354335670383 -0.026004069284491897 44.58433018817335 12.4555149515043 -0.02404708656517006 0.03949156018683272 0.014402611264698745 -0.044637284924349464 -0.02365274489245157 -0.011679291160372012 -0.038901361584266984 0.023550405991516726 11.111214938739286 -0.011886088381452616 -0.049002049499080665 -0.04491399431933693 -0.031666220803547446 -0.045740638527258674 -0.040420842250562916 0.04102776787491986 -0.025857976401452206 4.775862465271807 0.034639563980754455 0.04281566075953424 0.015152784947114105 -0.027353411721206047 0.02470953832145742 0.04723292854446978 -0.010143427327319656 0.021598649958890558 -5.556933122560205 -0.039877695008676155 0.038994801191726595 -6.726894954057822 0.030497427222848334 -0.027937477956775307 -6.748007911152894 0.017925646457816507 0.006152163183501035 -0.023192638208717933 0.03936062047325757 0.009025645892139039 8.026803106615162 3.455165506600971 -19.1968566446464 0.012140478232086577 10.36554485885143 0.03715193775591376 -5.634223558405771 -15.658426636516312 3.202334258639335 0.008722267366398334 0.046309164553613995 0.03479542792512701 0.026604010444437234 4.7215386174135325 -0.03392027268827545 12.451403685643305 -8.198119470677252 6.88115317477557 -0.04259992176528255 46.36040095405701 -0.02211650149723769 -4.35599075982247 -14.718215696569434 -3.82594708514901 0.018942961635409546 -0.02029674969270838 0.012667507167157201 -0.002748572846176799 -10.731891079499668 0.00583961128378831 
-0.04224514802010312 -0.04280119148193079 -0.0392834090038813 0.044718161292045276 -0.008677750102734156 0.029649040137271283 1.7359440304654272 0.9485281150582142 -1.709390268487352 -0.8359276223780614 3.4340726908681525 0.3885913648463621 -0.9691416406243931 -1.7291472206106868 0.8989807267505522 -0.8333518178815685 -0.3233668549596046 -0.37566846490619726 0.4915903773327445 13.407790317241602 -1.357841935561621 0.5742636724486921 0.6502433227624036 -3.975600046041685 1.1386965087514367 -14.611871857816578 -0.3242442282141948 -10.117380149081594 3.5954079068179694 -15.180002494968763 74.99617926185266 -1.3905855223894081 26.515966993679793 40.85166138454986 9.357344096414066 96.41003776920294 16.925871495612864 -0.46258914386328615 -6.930294143539292 4.515713856284987 -0.13059407193631986 -1.5655162579860553 -0.0032509554706090142 -0.03551658893405473 -56.2209543335246 0.025633703419522112 0.04895186588625742 -56.19200393039578 -38.75968639237116 0.01906834437413556 0.009075148377411248 -0.020834386666749093 -0.04452487927592343 -0.027282756687273722 0.02294631372164596 -0.02119817426800118 0.010379005036206108 -36.68350184942788 -0.0010325165238941813 -0.03448128018022357 -0.04883829929283614 -0.01253540386759061 -0.007852146136691582 -0.031064165872045954 0.018996911279800115 -0.012212476722542508 -19.737349353374427 -0.03692144109374928 0.029087275331596663 -0.0028254267536287183 0.04001375413555791 0.030709275878614124 -0.020022833380326052 -0.03371452766164427 -0.0072691223726022705 24.077782224644785 -0.013940922879142625 -0.032958197025273826 28.90393240294388 -0.00957941787778605 -0.004173761797360509 28.828380901313515 -0.0008120151786399607 -0.04711792867707549 9.07231016313607 2.1915159024026067 13.18198717800318 -73.19466572018791 24.104011203731147 -18.324739395486453 -51.10143935356697 12.237353940639567 -95.90609783823804 -17.576323826577323 -7.388378320878265 5.458670326820912 -0.46606562662097917 0.044524435868212406 -8.076049780262128 -0.027223641124507793 -0.03700151539412309 44.585331759099184 -0.01939499666816631 0.029373938838550117 44.55768806003476 12.501144570331196 0.006789073856779717 0.030598167108361145 0.04912247595115089 0.030150911826645466 -0.0033718785211557184 -0.007075404260840338 0.012611102818987023 -0.014880248196801279 11.106786298980497 -0.044443784672925354 -0.015123606514637237 -0.008048490168710822 -0.002022029097500396 0.00032838544870968117 -0.00918185970892475 0.044126972562221714 -0.028023880224032918 4.813519020775978 -0.023080757982457942 -0.014770597124978331 -0.011741308308288432 -0.021917045954398105 -0.020040502831471407 0.03579566525962969 -0.00019392492504285153 0.04077098017938981 -5.584142958584429 0.00719528342518895 0.027544487836665184 -6.706371500521326 -0.01787136143989866 -0.00956623452272272 -6.721327306213598 -0.008563383426285424 0.0037849276806941525 0.02106658745344357 0.010216691056739348 -0.02842100282413421 8.05296679245592 3.462388355224543 -19.2351064901644 -0.008340852340290725 10.411601733410874 -0.01702514986478462 -5.633489969300681 -15.647853071613582 3.237424691971074 0.015902030002757746 -0.040002677276731964 0.04619267082980736 -0.03394080026334551 4.672282885984852 -0.0015620409771157058 12.479084393312663 -8.253298010782899 6.9029505678804695 0.01425823431438567 46.4276080251863 -0.020045139314221472 -4.352528784227057 -14.743845732586301 -3.826149186386598 0.008208487808001479 0.03689230047977879 -0.018664304022006993 0.012324448021369611 -10.774465735245412 -0.008637673440028719 
-0.013694316251613457 0.04544467576175376 -0.04644261457106466 -0.0124531067126389 0.013833327919303043 -0.03503023085170114 1.6630048784624152 0.8461517868039667 -1.7434363934366905 -0.8438170756242183 3.331282858202433 0.42540067015025096 -0.9818576764676963 -1.7482786523788412 1.0302154452138101 -0.875928939501946 -0.37366409764390424 -0.30266649968327264 0.5120276179367647 13.459150586251182 -1.3775910947446066 0.6578453612215767 0.7450130088647067 -3.896759930123729 1.1621348843085872 -14.543948674327549 -0.3106951030820699 -10.29975619271003 3.6357095360580676 -15.121191270065433 75.08897368990205 -2.7488800278458028 28.41671417180009 40.295358352199194 9.31013894328434 98.09835927215735 16.41268397955881 -0.4734405211727748 -6.798099655463516 4.5610836195694615 -0.12814624991509616 -1.5658191836207682 -0.03928455770017581 0.04701817555638873 -56.18674135904525 -0.04891420008207913 0.04340566930124333 -56.23497342619583 -38.803895996017665 0.034781676146283066 0.022852306575275934 -0.018423148156734133 -0.0016751837616622437 -0.001212598538556242 0.00884322555228939 -0.013025925555444937 0.03664727486795099 -36.73108486614057 0.02842723290572532 -0.026577155442990254 -0.0397583920368055 -0.048990305914877644 -0.012180684787246097 0.03663241774693207 -0.04976876269132484 0.03854656370754241 -19.78302586923287 -0.03379261229828307 -0.01732118391873578 0.027738755043981204 0.007260957305237763 0.04711970989554584 0.030796320955123614 -0.033622928958473464 -0.006991468714835048 24.073642810022093 -0.03675273782168703 0.01053201352370396 28.86937376062273 0.037930862806218546 0.008668431297008143 28.82264101728975 0.002920019442036111 0.04801622810977865 9.11889824475025 2.200326268114323 13.115144996987652 -73.11249885486868 24.653110267991696 -18.248393797838396 -49.419173931963726 12.307478157807775 -96.99488286488616 -17.415108870074093 -7.439936377052556 5.325851749178486 -0.45711649347681227 0.08697601741543 -8.14945824257556 -0.01935292303877901 -0.025074799436992833 44.59052101825395 0.036486495312157044 0.046496828164190464 44.524618821904554 12.504055732623007 0.02948565440495323 0.016521526636838733 0.004285492767088164 0.032169964398135326 0.00012373648287797 0.00523194843948232 0.005083622939429335 0.03452050305596778 11.110915435332988 -0.04118089631010686 -0.02565622645795068 0.03840581239784223 0.02469492089297969 -0.0074956364243693166 -0.012590516722870915 0.024959205540633824 0.004613904190688476 4.729277784094647 -0.040473264721586216 -0.0076627379091282885 0.04035165063679044 -0.027389255139814224 0.04498121365034312 0.023003667380352186 0.018308496631837277 0.039673731763194206 -5.574996378027628 0.020335855317291318 -0.020034388737390885 -6.761179821161926 -0.015926047060390514 0.029643335341123647 -6.7370492919693445 0.04811086875955067 0.015883441265310928 -0.0023384430556509764 0.016696127241602837 0.03272591263248451 8.070658972235385 3.4924605283135928 -19.23715453111946 0.008774091833818241 10.387974967709232 0.032115021857918924 -5.617866482402111 -15.675598774532965 3.211716582430058 -0.046204619905598265 0.019086552738341398 0.004703656218828752 0.005697605711429572 4.727955523113718 0.012782942835357346 12.417977099389779 -8.255858781390355 6.864929986707908 -0.04020330314696189 46.39781136122874 0.005337573213962097 -4.298513087960204 -14.765081013280849 -3.855696517227697 -0.012517126660463259 -0.0485607056719285 -0.017305838299882463 -0.03588669591081802 -10.738692836498736 -0.031247749469060955 
